<svg xmlns="http://www.w3.org/2000/svg" xmlns:xlink="http://www.w3.org/1999/xlink" viewBox="0 0 1000 1000"><defs><style>.cls-1,.cls-6,.cls-7,.cls-8,.cls-9{fill:none;stroke-width:10px;}.cls-1,.cls-5{stroke:#40514e;}.cls-1,.cls-5,.cls-6,.cls-7,.cls-8,.cls-9{stroke-miterlimit:10;}.cls-1{opacity:0;}.cls-2,.cls-5{fill:#40514e;}.cls-3{fill:url(#linear-gradient);}.cls-4{fill:url(#linear-gradient-2);}.cls-6{stroke:url(#linear-gradient-3);}.cls-7{stroke:url(#linear-gradient-4);}.cls-8{stroke:url(#linear-gradient-5);}.cls-9{stroke:url(#linear-gradient-6);}</style><linearGradient id="linear-gradient" x1="311.82" y1="798.71" x2="232.46" y2="798.71" gradientUnits="userSpaceOnUse"><stop offset="0" stop-color="#11999e"/><stop offset="1" stop-color="#30e3ca"/></linearGradient><linearGradient id="linear-gradient-2" x1="699.5" y1="800.28" x2="778.86" y2="800.28" xlink:href="#linear-gradient"/><linearGradient id="linear-gradient-3" x1="324.13" y1="534.78" x2="395.72" y2="534.78" xlink:href="#linear-gradient"/><linearGradient id="linear-gradient-4" x1="600.44" y1="446.56" x2="673.54" y2="446.56" xlink:href="#linear-gradient"/><linearGradient id="linear-gradient-5" x1="414.71" y1="505.63" x2="487.81" y2="505.63" xlink:href="#linear-gradient"/><linearGradient id="linear-gradient-6" x1="506.8" y1="476.35" x2="580.01" y2="476.35" xlink:href="#linear-gradient"/></defs><g id="Layer_1" data-name="Layer 1"><line class="cls-1" x1="420.25" y1="448.98" x2="390.66" y2="448.98"/><line class="cls-1" x1="606.39" y1="448.98" x2="574.57" y2="448.98"/><path class="cls-2" d="M684.06,454h26.88c.95,0,1.74.46.7,0l-3-2.3c-.8-1.75,0,2.29.07,2.78.2,1.36.43,2.7.75,4A46.32,46.32,0,0,0,735,489.6a47.46,47.46,0,0,0,7.5,2.76c1.31.35,2.64.63,4,.86.5.08,5.13,1,3.45.2l-2.3-3c-.41-1,.16-.68,0,.29a26.94,26.94,0,0,0,0,3.48V653.35c0,1.4,0,2.8,0,4.2,0,1-.48,1.79,0,.68l2.3-3c1.7-.8-2.3,0-2.81.11-1.36.21-2.71.47-4.05.81a46.31,46.31,0,0,0-30.91,26.2,45,45,0,0,0-2.64,7.63c-.33,1.34-.57,2.7-.78,4.06-.07.49-.82,5.23-.09,3.54l3-2.3c.91-.37.9.19,0,0a13.64,13.64,0,0,0-2.12,0H312.83c-5.09,0-11.24-1-16.27,0-.78.15-.88-.41.09,0l3,2.3c.81,1.72-.06-2.23-.14-2.75-.22-1.35-.5-2.68-.84-4a48.82,48.82,0,0,0-3-8.12,45.89,45.89,0,0,0-9.53-13.28A47.18,47.18,0,0,0,265,657.69c-1.33-.33-2.67-.57-4-.78-.49-.07-5.22-.86-3.48-.1l2.3,3c.39,1-.15.66,0-.37a31.2,31.2,0,0,0,0-3.35V495c0-1.42,0-2.84,0-4.25,0-1,.48-1.91,0-.76l-2.3,3c-1.83.85,1.66.06,2.12,0a48.2,48.2,0,0,0,4.76-.93,47,47,0,0,0,7.62-2.72,46.11,46.11,0,0,0,22.77-22.44,47.57,47.57,0,0,0,2.81-7.58,42.25,42.25,0,0,0,1-4.73c.08-.51.9-4.51.11-2.82l-3,2.3c-1.26.51,1,0,2,0H313.9c6.44,0,6.45-10,0-10H301.48c-3.94,0-9.53-1-11.69,3.21-1.64,3.22-1.3,7.85-2.45,11.38a35.85,35.85,0,0,1-5.69,10.71,36.68,36.68,0,0,1-19.27,12.91c-5.06,1.39-12,.27-12.62,7.11-.11,1.1,0,2.26,0,3.37V655.36c0,4.85-.57,9.91,5.74,11,7.87,1.36,14.69,2.78,21.12,8a36.91,36.91,0,0,1,12.57,19.83c1.19,4.84.44,10.48,6.74,11.17.49,0,1,0,1.5,0,22.61.41,45.26,0,67.87,0H706.37c1.89,0,3.87.17,5.75,0,3.56-.32,5.46-2.3,6-5.75,1.37-8,2.75-14.85,8.05-21.37a36.83,36.83,0,0,1,20.14-12.57c4.89-1.16,10.65-.37,11.27-6.8.35-3.6,0-7.4,0-11V525.39c0-11.67,1-23.85,0-35.48-.56-6.53-6.26-5.72-11.2-6.87a36.38,36.38,0,0,1-28.17-32.62c-.58-5.65-4.3-6.44-9-6.44H684.06c-6.44,0-6.45,10,0,10Z"/><line class="cls-1" x1="512.57" y1="448.98" x2="482.41" y2="448.98"/><line class="cls-1" x1="420.11" y1="427.63" x2="390.68" y2="427.63"/><line class="cls-1" x1="606.29" y1="427.63" x2="574.53" y2="427.63"/><path class="cls-2" d="M684.06,432.63H786.2l-5-5V720.57l5-5H243.46c-7.1,0-15-1-22,0a7.22,7.22,0,0,1-.93,0l5,5V427.63l-5,5h93.76c6.43,0,6.44-10,0-10H220.5a5.07,5.07,0,0,0-5,5V720.57a5.07,5.07,0,0,0,5,5H716.64c22.82,0,45.82.83,68.63,0,.31,0,.62,0,.93,0a5.07,5.07,0,0,0,5-5V427.63a5.07,5.07,0,0,0-5-5H684.06c-6.44,0-6.45,10,0,10Z"/><line class="cls-1" x1="512.46" y1="427.63" x2="482.36" y2="427.63"/><path class="cls-2" d="M244.94,774.83a21.91,21.91,0,0,1-9.6-1.92,13.49,13.49,0,0,1-6.1-5.73,22.19,22.19,0,0,1,0-18.89,13.5,13.5,0,0,1,6.1-5.71,25.09,25.09,0,0,1,19.25,0,13.53,13.53,0,0,1,6.09,5.71,22.19,22.19,0,0,1,0,18.89,13.52,13.52,0,0,1-6.09,5.73A22.11,22.11,0,0,1,244.94,774.83Zm0-7.92a7.83,7.83,0,0,0,3.05-.55,6,6,0,0,0,2.2-1.56,6.25,6.25,0,0,0,1.32-2.42,10.56,10.56,0,0,0,.44-3.1v-3.07a10.56,10.56,0,0,0-.44-3.1,6.25,6.25,0,0,0-1.32-2.42,6,6,0,0,0-2.2-1.56,8.73,8.73,0,0,0-6.1,0,5.72,5.72,0,0,0-2.18,1.56,6.63,6.63,0,0,0-1.3,2.42,10.56,10.56,0,0,0-.43,3.1v3.07a10.56,10.56,0,0,0,.43,3.1,6.63,6.63,0,0,0,1.3,2.42,5.72,5.72,0,0,0,2.18,1.56A7.83,7.83,0,0,0,244.94,766.91Z"/><path class="cls-2" d="M296.35,774.26v-33h14.3a22.66,22.66,0,0,1,9.5,1.78,12.4,12.4,0,0,1,5.84,5.42,22.73,22.73,0,0,1,0,18.6,12.36,12.36,0,0,1-5.84,5.45,22.5,22.5,0,0,1-9.5,1.78Zm10.6-7.92h3.51a8.5,8.5,0,0,0,3-.48,5.33,5.33,0,0,0,2.09-1.39,5.76,5.76,0,0,0,1.2-2.26,11.24,11.24,0,0,0,.38-3v-2.88a11.31,11.31,0,0,0-.38-3,5.72,5.72,0,0,0-1.2-2.25,5.24,5.24,0,0,0-2.09-1.4,8.5,8.5,0,0,0-3-.48H307Z"/><path class="cls-2" d="M343.43,774.26v-33H372v7.92H354v4.56H369.4v7.59H354v5h18.29v7.92Z"/><path class="cls-2" d="M402.38,774.83a37.29,37.29,0,0,1-6.36-.5,16.52,16.52,0,0,1-5.19-1.73,8.9,8.9,0,0,1-3.5-3.41,10.72,10.72,0,0,1-1.27-5.49v-.27a1.59,1.59,0,0,1,0-.36h10a1.2,1.2,0,0,0-.05.36v.32a3.22,3.22,0,0,0,.67,2.2,3.37,3.37,0,0,0,1.9,1,13.49,13.49,0,0,0,2.76.26l1.22,0a8.38,8.38,0,0,0,1.25-.15,4.58,4.58,0,0,0,1.1-.36,1.89,1.89,0,0,0,.79-.65,1.67,1.67,0,0,0,.29-1,1.63,1.63,0,0,0-.81-1.44,8.32,8.32,0,0,0-2.21-.91q-1.4-.39-3.12-.72c-1.15-.22-2.35-.49-3.6-.79a24.86,24.86,0,0,1-3.6-1.18,12.49,12.49,0,0,1-3.12-1.85,8,8,0,0,1-2.21-2.83,10.63,10.63,0,0,1,.38-9,9.34,9.34,0,0,1,3.29-3.26,15.87,15.87,0,0,1,4.75-1.83,26.72,26.72,0,0,1,5.6-.57,25,25,0,0,1,5.59.6,15,15,0,0,1,4.63,1.85,9.39,9.39,0,0,1,3.17,3.16,9,9,0,0,1,1.2,4.56v.58h-9.94v-.19a3.23,3.23,0,0,0-.43-1.63,3.11,3.11,0,0,0-1.37-1.25,5.43,5.43,0,0,0-2.47-.48,8.39,8.39,0,0,0-2.42.29,3.19,3.19,0,0,0-1.47.79,1.53,1.53,0,0,0-.48,1.08,1.75,1.75,0,0,0,.82,1.49,7.27,7.27,0,0,0,2.21,1q1.38.38,3.12.72c1.15.22,2.35.47,3.6.74a24.13,24.13,0,0,1,3.6,1.08,12.49,12.49,0,0,1,3.12,1.75,7.93,7.93,0,0,1,2.2,2.67,8.31,8.31,0,0,1,.82,3.88,10.11,10.11,0,0,1-7.08,10.35A22.17,22.17,0,0,1,402.38,774.83Z"/><path class="cls-2" d="M431.94,774.26v-33H460.5v7.92H442.55v4.56h15.36v7.59H442.55v5h18.29v7.92Z"/><path class="cls-2" d="M476.06,774.26v-33h9l10.27,11.86c.29.32.67.78,1.15,1.39l1.47,1.85c.49.62.87,1.13,1.12,1.51l.24-.09c0-.9,0-1.79,0-2.67V741.23h9.64v33h-9l-11.57-13.2c-.54-.64-1-1.23-1.39-1.75l-1.1-1.52-.24.1c0,.61,0,1.22,0,1.82v14.55Z"/><path class="cls-2" d="M534.62,774.26l-11.72-33h11.33l4.56,15.27c.13.41.3,1,.53,1.82s.47,1.65.74,2.55.51,1.71.7,2.44h.38c.19-.67.42-1.44.67-2.3s.51-1.7.75-2.52.42-1.48.55-2l4.61-15.27h10.85l-11.67,33Z"/><path class="cls-2" d="M588,774.83a21.91,21.91,0,0,1-9.6-1.92,13.49,13.49,0,0,1-6.1-5.73,22.19,22.19,0,0,1,0-18.89,13.5,13.5,0,0,1,6.1-5.71,25.09,25.09,0,0,1,19.25,0,13.48,13.48,0,0,1,6.09,5.71,22.1,22.1,0,0,1,0,18.89,13.47,13.47,0,0,1-6.09,5.73A22.11,22.11,0,0,1,588,774.83Zm0-7.92a7.83,7.83,0,0,0,3.05-.55,6,6,0,0,0,2.2-1.56,6.4,6.4,0,0,0,1.33-2.42,10.9,10.9,0,0,0,.43-3.1v-3.07a10.9,10.9,0,0,0-.43-3.1,6.4,6.4,0,0,0-1.33-2.42,6,6,0,0,0-2.2-1.56,8.73,8.73,0,0,0-6.1,0,5.72,5.72,0,0,0-2.18,1.56,6.63,6.63,0,0,0-1.3,2.42,10.56,10.56,0,0,0-.43,3.1v3.07a10.56,10.56,0,0,0,.43,3.1,6.63,6.63,0,0,0,1.3,2.42,5.72,5.72,0,0,0,2.18,1.56A7.83,7.83,0,0,0,588,766.91Z"/><path class="cls-2" d="M621.21,774.26v-33h10.61v24.58h16.94v8.45Z"/><path class="cls-2" d="M668,774.26l-11.71-33h11.33l4.56,15.27c.12.41.3,1,.52,1.82s.48,1.65.75,2.55.5,1.71.69,2.44h.39c.19-.67.41-1.44.67-2.3s.5-1.7.74-2.52.43-1.48.56-2l4.6-15.27h10.85l-11.66,33Z"/><path class="cls-2" d="M706.07,774.26v-33h28.56v7.92h-18v4.56H732v7.59H716.68v5H735v7.92Z"/><path class="cls-2" d="M750.18,774.26v-33h20.69a11.82,11.82,0,0,1,6.17,1.49,9.71,9.71,0,0,1,3.72,3.89,11.1,11.1,0,0,1,1.25,5.18,10.7,10.7,0,0,1-1.49,5.64,11.25,11.25,0,0,1-4,4L783,774.26H771.06l-5-11.09h-5.23v11.09Zm10.61-18.43h7.44a2.69,2.69,0,0,0,2.11-1,3.79,3.79,0,0,0,.87-2.61,3.86,3.86,0,0,0-.39-1.78,3.13,3.13,0,0,0-1.05-1.22,2.64,2.64,0,0,0-1.54-.46h-7.44Z"/><path class="cls-2" d="M319.94,807.05V790.59h6.36a9.91,9.91,0,0,1,4.34.87,6.16,6.16,0,0,1,2.77,2.69,11.68,11.68,0,0,1,0,9.32,6.08,6.08,0,0,1-2.77,2.7,9.77,9.77,0,0,1-4.34.88Zm2.68-2.3h3.65a7.18,7.18,0,0,0,2.27-.34,4.24,4.24,0,0,0,1.68-1,4.36,4.36,0,0,0,1-1.77,8.22,8.22,0,0,0,.35-2.53v-.5a8.38,8.38,0,0,0-.35-2.56,4.32,4.32,0,0,0-1-1.76,4.13,4.13,0,0,0-1.68-1,6.9,6.9,0,0,0-2.27-.34h-3.65Z"/><path class="cls-2" d="M355.74,807.05l6.46-16.46h3.43l6.48,16.46h-2.88l-1.46-3.82H360l-1.47,3.82Zm5.09-6.1h6.05L365,796.13l-.21-.6q-.15-.39-.3-.84c-.11-.3-.21-.61-.32-.92l-.27-.86h-.15q-.13.47-.36,1.08t-.42,1.2c-.13.39-.25.7-.34.94Z"/><path class="cls-2" d="M419.94,807.05V790.59h12.77v2.3H422.63v4.58h9v2.31h-9v5h10.23v2.3Z"/><path class="cls-2" d="M463.65,807.34a9.38,9.38,0,0,1-4.29-.9,6.06,6.06,0,0,1-2.7-2.8,10.92,10.92,0,0,1-.93-4.82q0-4.32,2.1-6.42a7.88,7.88,0,0,1,5.84-2.1,9.51,9.51,0,0,1,3.71.69,5.88,5.88,0,0,1,2.59,2.08,6.09,6.09,0,0,1,.95,3.52h-2.74a4.09,4.09,0,0,0-.55-2.21,3.53,3.53,0,0,0-1.57-1.35,5.81,5.81,0,0,0-2.36-.45,5.72,5.72,0,0,0-2.85.66,4.15,4.15,0,0,0-1.75,2,8.33,8.33,0,0,0-.59,3.36v.53a8.33,8.33,0,0,0,.59,3.36,4,4,0,0,0,1.74,1.95,5.79,5.79,0,0,0,2.86.64,6,6,0,0,0,2.42-.45,3.37,3.37,0,0,0,1.59-1.33,4,4,0,0,0,.57-2.21h2.64a6.15,6.15,0,0,1-.95,3.53,5.66,5.66,0,0,1-2.59,2.07A10,10,0,0,1,463.65,807.34Z"/><path class="cls-2" d="M501.78,807.34a9.61,9.61,0,0,1-4.4-.94,6.47,6.47,0,0,1-2.86-2.83,11.94,11.94,0,0,1,0-9.52,6.55,6.55,0,0,1,2.86-2.82,11,11,0,0,1,8.84,0,6.52,6.52,0,0,1,2.85,2.82,11.94,11.94,0,0,1,0,9.52,6.44,6.44,0,0,1-2.85,2.83A9.64,9.64,0,0,1,501.78,807.34Zm0-2.28a7,7,0,0,0,2.34-.36,4.3,4.3,0,0,0,1.73-1.11,4.9,4.9,0,0,0,1.08-1.87,8.26,8.26,0,0,0,.37-2.61v-.53a8.53,8.53,0,0,0-.37-2.67,5,5,0,0,0-1.08-1.87,4.39,4.39,0,0,0-1.73-1.1,7,7,0,0,0-2.34-.36,6.91,6.91,0,0,0-2.31.36,4.39,4.39,0,0,0-1.73,1.1,4.83,4.83,0,0,0-1.07,1.87,8.85,8.85,0,0,0-.36,2.67v.53a8.57,8.57,0,0,0,.36,2.61,4.76,4.76,0,0,0,1.07,1.87,4.3,4.3,0,0,0,1.73,1.11A6.91,6.91,0,0,0,501.78,805.06Z"/><path class="cls-2" d="M533.56,807.05V790.59h2.59l7.51,10.32a2.5,2.5,0,0,1,.33.4l.34.53a3.19,3.19,0,0,1,.25.43h.12V790.59h2.59v16.46h-2.5l-7.61-10.44c-.13-.19-.28-.44-.48-.73l-.43-.69h-.12v11.86Z"/><path class="cls-2" d="M579,807.34a9.65,9.65,0,0,1-4.41-.94,6.39,6.39,0,0,1-2.85-2.83,11.83,11.83,0,0,1,0-9.52,6.47,6.47,0,0,1,2.85-2.82,11,11,0,0,1,8.85,0,6.5,6.5,0,0,1,2.84,2.82,11.83,11.83,0,0,1,0,9.52,6.42,6.42,0,0,1-2.84,2.83A9.64,9.64,0,0,1,579,807.34Zm0-2.28a7,7,0,0,0,2.34-.36,4.37,4.37,0,0,0,1.73-1.11,4.9,4.9,0,0,0,1.08-1.87,8.56,8.56,0,0,0,.37-2.61v-.53a8.83,8.83,0,0,0-.37-2.67,5,5,0,0,0-1.08-1.87,4.46,4.46,0,0,0-1.73-1.1,7,7,0,0,0-2.34-.36,6.93,6.93,0,0,0-2.32.36A4.35,4.35,0,0,0,575,794a4.71,4.71,0,0,0-1.07,1.87,8.85,8.85,0,0,0-.36,2.67v.53a8.57,8.57,0,0,0,.36,2.61,4.64,4.64,0,0,0,1.07,1.87,4.26,4.26,0,0,0,1.72,1.11A6.93,6.93,0,0,0,579,805.06Z"/><path class="cls-2" d="M610.81,807.05V790.59H615l3.2,10c.09.29.19.62.28,1l.28,1.06a8.84,8.84,0,0,1,.2.89h.2a8.33,8.33,0,0,1,.16-.87l.26-1c.08-.37.18-.71.27-1l3.22-10h4.13v16.46h-2.67v-9c0-.61,0-1.24,0-1.9s0-1.24,0-1.75,0-.84,0-1h-.19c0,.18-.11.48-.23.9s-.25.88-.37,1.36-.25.9-.36,1.25l-3.34,10.15h-2.38l-3.33-10.13c-.1-.3-.2-.66-.31-1.08s-.23-.84-.34-1.27-.21-.82-.29-1.18h-.19c0,.39,0,.86,0,1.42s0,1.12,0,1.69,0,1.08,0,1.53v9Z"/><path class="cls-2" d="M651.52,807.05V790.59h2.69v16.46Z"/><path class="cls-2" d="M676.69,807.05l6.46-16.46h3.43l6.48,16.46h-2.88l-1.46-3.82h-7.8l-1.47,3.82Zm5.09-6.1h6.05L686,796.13l-.21-.6q-.15-.39-.3-.84c-.11-.3-.21-.61-.32-.92l-.27-.86h-.15q-.13.47-.36,1.08t-.42,1.2c-.13.39-.25.7-.34.94Z"/><line class="cls-2" x1="311.82" y1="798.71" x2="232.46" y2="798.71"/><polygon class="cls-3" points="311.82 801.21 232.46 798.71 311.82 796.21 311.82 801.21"/><polygon class="cls-4" points="699.5 797.78 778.86 800.28 699.5 802.78 699.5 797.78"/></g><g id="Layer_4" data-name="Layer 4"><polyline class="cls-2" points="326.6 403.8 330.23 401.48 387 365.29 609.14 223.64 656.05 193.72 671.49 183.87"/><path class="cls-2" d="M329.63,409q30.48-19.49,61-38.9L448,333.5l97.81-62.36L610,230.19l56-35.69,8.55-5.45c6.49-4.14.48-14.53-6.06-10.36l-62.62,39.94-54.72,34.89-97.65,62.27-66.54,42.43-58.72,37.43-4.64,3c-6.49,4.14-.48,14.53,6.06,10.36Z"/><path class="cls-5" d="M670,159.7l21.54,3.74a8.22,8.22,0,0,1,6.67,10.28L693,194.11c-2,7.7-12.34,10-16.63,3.69L660,173.66C655.61,167.21,662,158.31,670,159.7Z"/><path class="cls-6" d="M390.71,385.27l-.19,238.9c0,35.5,1.26,64.27-30.7,64.27-30.41,0-30.69-28.77-30.69-64.27l.2-199.53Z"/><path class="cls-7" d="M667.88,208.61l.65,409.67c0,38.88.56,70.39-30.67,70.39h0c-30.08,0-30.68-31.51-30.68-70.39l-1.73-369.39Z"/><path class="cls-8" d="M482.15,326.89l.66,309.94c0,28.53-1.21,51.67-30.68,51.67h0c-29.69,0-30.68-23.14-30.68-51.67l-1.73-270.05Z"/><path class="cls-9" d="M574.24,268.36l.65,359.29c0,33.6,3.66,60.85-30.67,60.85h0c-33.39,0-30.68-27.25-30.68-60.85l-1.73-319.13Z"/></g></svg>